<svg width="80" height="80" viewBox="0 0 80 80" fill="none" xmlns="http://www.w3.org/2000/svg">
<rect width="80" height="80" rx="10" fill="#41959A"/>
<path d="M54.5833 25.3334H25.4167C23.7591 25.3334 22.1694 25.9919 20.9973 27.164C19.8252 28.3361 19.1667 29.9258 19.1667 31.5834V52.4167C19.1667 54.0743 19.8252 55.664 20.9973 56.8361C22.1694 58.0082 23.7591 58.6667 25.4167 58.6667H54.5833C56.2409 58.6667 57.8307 58.0082 59.0028 56.8361C60.1749 55.664 60.8333 54.0743 60.8333 52.4167V31.5834C60.8333 29.9258 60.1749 28.3361 59.0028 27.164C57.8307 25.9919 56.2409 25.3334 54.5833 25.3334V25.3334ZM53.1875 29.5L40 39.3959L26.8125 29.5H53.1875ZM54.5833 54.5H25.4167C24.8641 54.5 24.3342 54.2805 23.9435 53.8898C23.5528 53.4991 23.3333 52.9692 23.3333 52.4167V32.1042L38.75 43.6667C39.1106 43.9372 39.5492 44.0834 40 44.0834C40.4508 44.0834 40.8894 43.9372 41.25 43.6667L56.6667 32.1042V52.4167C56.6667 52.9692 56.4472 53.4991 56.0565 53.8898C55.6658 54.2805 55.1359 54.5 54.5833 54.5Z" fill="#DDEDEE"/>
</svg>
