<svg width="80" height="80" viewBox="0 0 80 80" fill="none" xmlns="http://www.w3.org/2000/svg">
<rect width="80" height="80" rx="10" fill="#41959A"/>
<path d="M53.2554 24.8199C53.2554 24.8199 57.0747 23.3305 56.7552 26.9473C56.65 28.4367 55.6954 33.65 54.9522 39.288L52.406 55.9907C52.406 55.9907 52.1937 58.4376 50.2835 58.8633C48.3744 59.288 45.5097 57.3739 44.9788 56.9482C44.5541 56.6287 37.0217 51.8411 34.3693 49.5013C33.6261 48.8623 32.7767 47.5863 34.4755 46.0969L45.6148 35.4579C46.8879 34.1819 48.161 31.2031 42.8563 34.8199L28.0018 44.926C28.0018 44.926 26.304 45.9907 23.1218 45.0332L16.2244 42.9048C16.2244 42.9048 13.6782 41.3093 18.0284 39.7137C28.6389 34.7137 41.6894 29.6075 53.2534 24.8199H53.2554Z" fill="#DDEDEE"/>
</svg>
