<svg width="80" height="80" viewBox="0 0 80 80" fill="none" xmlns="http://www.w3.org/2000/svg">
<rect width="80" height="80" rx="10" fill="#41959A"/>
<path d="M25.3433 25.1781C28.084 25.1781 30.3058 22.9563 30.3058 20.2155C30.3058 17.4747 28.084 15.2529 25.3433 15.2529C22.6025 15.2529 20.3807 17.4747 20.3807 20.2155C20.3807 22.9563 22.6025 25.1781 25.3433 25.1781Z" fill="#DDEDEE"/>
<path d="M34.9915 28.9387V56.471H43.5399V42.8557C43.5399 39.263 44.2158 35.7838 48.6703 35.7838C53.0636 35.7838 53.1181 39.8913 53.1181 43.0825V56.4733H61.671V41.3746C61.671 33.958 60.0743 28.2583 51.4057 28.2583C47.2437 28.2583 44.454 30.5423 43.3131 32.7037H43.1975V28.9387H34.9915V28.9387ZM21.0609 28.9387H29.623V56.471H21.0609V28.9387Z" fill="#DDEDEE"/>
</svg>
