<svg width="62" height="62" viewBox="0 0 62 62" fill="none" xmlns="http://www.w3.org/2000/svg">
<rect width="62" height="62" rx="10" fill="#A9C2C3"/>
<path d="M19.641 19.513C21.7651 19.513 23.487 17.7911 23.487 15.667C23.487 13.543 21.7651 11.821 19.641 11.821C17.517 11.821 15.795 13.543 15.795 15.667C15.795 17.7911 17.517 19.513 19.641 19.513Z" fill="#DDEDEE"/>
<path d="M27.1185 22.4275V43.765H33.7435V33.2131C33.7435 30.4288 34.2673 27.7324 37.7195 27.7324C41.1243 27.7324 41.1665 30.9157 41.1665 33.3889V43.7668H47.7951V32.0653C47.7951 26.3174 46.5576 21.9001 39.8394 21.9001C36.6139 21.9001 34.4519 23.6702 33.5677 25.3454H33.4781V22.4275H27.1185ZM16.3223 22.4275H22.9578V43.765H16.3223V22.4275Z" fill="#DDEDEE"/>
</svg>
